<svg width="156" height="42" fill="none" xmlns="http://www.w3.org/2000/svg"><g clip-path="url(#clip0)" fill="#27979D"><path d="M108.994 29.377c3.956 0 8.916-2.043 8.916-10.271 0-8.229-4.744-10.301-8.916-10.301-4.172 0-8.917 2.087-8.917 10.3 0 8.215 4.96 10.272 8.917 10.272zm0-17.375c2.551 0 4.172 1.406 4.172 7.118 0 5.713-1.607 7.12-4.172 7.12-2.552 0-4.172-1.407-4.172-7.12 0-5.712 1.606-7.118 4.172-7.118zM92.45 18.38l6.594-8.865h-5.361l-6.064 8.303h-.086v-6.512c0-.858-.86-2.264-2.924-2.264-.244 0-1.162.044-1.692.133V29.11h4.616V18.884h.086l7.053 10.226h5.247L92.45 18.38zm-26.277 5.876l-1.649 2.264c1.162.888 3.427 2.857 8.043 2.857 3.956 0 7.755-2.265 7.755-6.053 0-4.426-5.118-5.669-8.945-7.075-2.15-.814-2.308-2.56-1.276-3.537 1.85-1.746 6.766-.044 8 .474l1.189-2.338s-2.767-1.999-6.852-1.999c-2.351 0-4.702.34-6.394 2.428-1.233 1.568-1.405 4.35.086 6.304 1.52 2.043 6.81 3.538 8.329 4.381 1.19.636 1.405 1.569 1.233 2.427-.316 1.45-3.297 3.537-9.519-.133zm59.235-10.774c.989-.518 4.616-1.658 6.192 0 .86.932 1.033 2.264 1.033 3.448v12.18h4.616V16.042c0-4.647-3.469-6.985-6.809-6.985-1.362 0-3.341.177-5.534 1.702-.502-.726-1.447-1.362-3.097-1.362-.329 0-.659.044-1.031.089v19.669h4.615l.015-15.673zm22.693-4.632c-4.416 0-7.584 2.338-7.584 2.338l1.32 2.22c2.479-1.199 5.031-1.747 7.096-1.229 2.924.681 2.436 4.263 2.436 4.263-2.479-.09-11.712-.77-11.712 6.778 0 3.197 1.778 5.535 5.534 6.053 2.351.296 4.501-.296 6.48-1.702.416.888 1.362 1.746 3.297 1.746.33 0 .659-.044 1.032-.088V15.02c.014-4.988-4.931-6.172-7.899-6.172zm3.297 15.79c-1.821 1.2-3.383 1.318-4.286 1.318-1.075 0-2.81-.518-2.81-3.108 0-4.01 4.874-4.174 7.096-4.174v5.965zm-89.225 4.603V15.021c0-5.032-4.945-6.216-7.884-6.216-4.416 0-7.584 2.338-7.584 2.338l1.32 2.22c2.48-1.198 5.031-1.746 7.095-1.228 2.925.68 2.437 4.262 2.437 4.262-2.48-.088-11.712-.77-11.712 6.779 0 3.196 1.778 5.535 5.534 6.053 2.35.296 4.501-.296 6.48-1.702.415.888 1.361 1.746 3.297 1.746a6 6 0 001.017-.03zm-4.63-4.602c-1.82 1.199-3.383 1.317-4.286 1.317-1.075 0-2.81-.518-2.81-3.108 0-4.01 4.874-4.174 7.096-4.174v5.965zM5.906 10.463c.53 0 1.032-.208 1.405-.592.373-.385.574-.888.574-1.495 0-.548-.201-1.066-.574-1.45a1.917 1.917 0 00-1.405-.593c-.53 0-1.032.208-1.448.592a2.045 2.045 0 00-.573 1.45c0 .548.2 1.066.573 1.451.416.43.904.637 1.448.637zm-4.3 7.029c-.904 0-1.606.77-1.606 1.658 0 .932.745 1.658 1.606 1.658.458 0 .831-.178 1.16-.518.33-.34.503-.726.503-1.2-.058-.872-.789-1.598-1.663-1.598zm14.736 13.971c-1.52 0-2.766 1.273-2.766 2.857 0 1.569 1.232 2.856 2.766 2.856a2.69 2.69 0 001.979-.858 2.93 2.93 0 00.831-2.043c0-.77-.287-1.494-.831-2.042-.545-.474-1.247-.77-1.979-.77zm10.394-5.461c-.99 0-1.935.385-2.638 1.155a3.932 3.932 0 00-1.118 2.723c0 1.021.373 1.998 1.118 2.723l.043.044a3.647 3.647 0 002.638 1.11c.99 0 1.935-.384 2.638-1.154l.086-.089c1.362-1.495 1.362-3.922-.086-5.402-.746-.725-1.692-1.11-2.681-1.11zm-2.681-14.903a3.648 3.648 0 002.638 1.11c.99 0 1.935-.43 2.638-1.154 1.448-1.495 1.448-3.967 0-5.447-1.448-1.495-3.842-1.495-5.319 0-1.448 1.54-1.405 3.996.043 5.491zM5.906 27.793c-.53 0-1.032.207-1.448.592a2.13 2.13 0 000 2.945c.373.385.86.592 1.405.592.53 0 1.032-.207 1.405-.592s.574-.888.574-1.495a2.07 2.07 0 00-.574-1.45c-.301-.37-.831-.592-1.362-.592zM16.3 6.792c1.52 0 2.81-1.272 2.81-2.9-.015-1.57-1.248-2.842-2.767-2.842-1.52 0-2.767 1.273-2.767 2.9-.043 1.57 1.19 2.842 2.724 2.842zm14.765 7.252c-2.723 0-4.902 2.264-4.902 5.062 0 2.797 2.193 5.061 4.902 5.061 2.71 0 4.903-2.264 4.903-5.061 0-2.798-2.179-5.062-4.903-5.062zm14.809 21.8h1.605v4.218h.832v-4.218h1.605v-.843h-4.042v.843zm5.648 2.086H53.3v-.843h-1.778v-1.243H53.5v-.843h-2.838v5.061h2.881v-.858h-2.021V37.93zM56.11 35h-1.405v5.062h.86v-1.835c.2.044.502.044.616.044 1.161 0 1.778-.77 1.778-1.613.043-.858-.416-1.657-1.85-1.657zm.071 2.428c-.2 0-.416 0-.616-.045v-1.539h.616c.574 0 .903.252.903.77.015.547-.401.814-.903.814zM60.396 35H58.99v5.062h.86v-1.835c.2.044.502.044.617.044 1.16 0 1.777-.77 1.777-1.613.043-.858-.401-1.657-1.85-1.657zm.086 2.428c-.2 0-.416 0-.617-.045v-1.539h.617c.573 0 .903.252.903.77 0 .547-.416.814-.903.814zm3.67 1.139v-3.566h-.875v5.061h.746l2.566-3.581v3.581h.86v-5.061h-.745l-2.552 3.566zm4.085-2.723H69.8v4.218h.86v-4.218h1.577v-.843h-4v.843zm6.723-.888c-1.49 0-2.522 1.154-2.522 2.605 0 1.569 1.075 2.605 2.523 2.605 1.448 0 2.552-1.066 2.552-2.605 0-1.584-1.119-2.605-2.552-2.605zm0 4.336c-.902 0-1.605-.77-1.605-1.746 0-1.021.703-1.79 1.606-1.79.903 0 1.648.724 1.648 1.79 0 .977-.616 1.746-1.648 1.746zM79.907 35h-1.405v5.062h.86v-1.835c.2.044.502.044.616.044 1.162 0 1.778-.77 1.778-1.613.043-.858-.401-1.657-1.85-1.657zm.086 2.428c-.201 0-.416 0-.617-.045v-1.539h.617c.573 0 .903.252.903.77 0 .547-.416.814-.903.814zm3.669 1.139v-3.566h-.83v5.061h.745l2.566-3.581v3.581h.817v-5.061h-.746l-2.552 3.566zm4.545-1.82c0 .68.416 1.154.86 1.406l-1.233 1.909h.946l1.076-1.746h.702v1.746h.86V35.03c-.287 0-.903-.044-1.19-.044-1.448.015-2.021.814-2.021 1.76zm2.351.71h-.789c-.33-.089-.702-.34-.702-.814 0-.518.373-.858.903-.858.172 0 .416 0 .53.044v1.628h.058zm6.967-.029c.459-.296.66-.726.66-1.11 0-.888-.617-1.362-1.448-1.362-.66 0-1.276.34-1.563.77l.502.592c.286-.385.573-.548.989-.548.416 0 .702.207.702.636 0 .43-.33.681-.702.681h-.459v.814h.502c.573 0 .86.252.86.681 0 .518-.416.77-.903.77-.416 0-.86-.252-1.161-.592l-.46.592c.245.384.832.858 1.65.858.86 0 1.691-.548 1.691-1.495-.043-.65-.287-1.125-.86-1.287zM103.26 35h-3.011l-.043 1.022c-.086 1.88-.53 2.945-.746 3.197h-.53v1.701h.788v-.858h3.384v.888h.788v-1.702h-.673v-4.262h.043V35zm-.832 4.204h-2.022c.172-.208.531-1.2.617-2.516l.086-.888h1.362v3.404h-.043zm4.459-4.248c-1.491 0-2.524 1.154-2.524 2.605 0 1.569 1.076 2.605 2.524 2.605 1.447 0 2.551-1.066 2.551-2.605-.029-1.584-1.104-2.605-2.551-2.605zm0 4.336c-.903 0-1.606-.77-1.606-1.746 0-1.021.703-1.79 1.606-1.79.902 0 1.648.724 1.648 1.79-.043.977-.617 1.746-1.648 1.746zM111.831 35h-1.404v5.062h.861v-1.835c.2.044.501.044.615.044 1.162 0 1.778-.77 1.778-1.613.014-.858-.444-1.657-1.85-1.657zm.087 2.428c-.2 0-.416 0-.616-.045v-1.539h.616c.573 0 .903.252.903.77-.029.547-.401.814-.903.814zm4.96-2.472c-1.49 0-2.523 1.154-2.523 2.605 0 1.569 1.075 2.605 2.523 2.605 1.448 0 2.552-1.066 2.552-2.605-.043-1.584-1.118-2.605-2.552-2.605zm0 4.336c-.903 0-1.605-.77-1.605-1.746 0-1.021.702-1.79 1.605-1.79s1.649.724 1.649 1.79c0 .977-.631 1.746-1.649 1.746zm5.849-1.909c.416-.207.703-.592.703-1.154 0-.68-.459-1.228-1.606-1.228-.502 0-1.161.044-1.405.044v5.032c.287.044.903.044 1.362.044 1.032 0 1.82-.473 1.82-1.495 0-.74-.372-1.124-.874-1.243zm-1.448-1.539c.172 0 .33-.044.53-.044.459 0 .789.207.789.636 0 .474-.33.68-.746.68h-.573v-1.272zm.588 3.404c-.243 0-.459-.044-.574-.044v-1.318h.617c.531 0 .86.208.86.637-.043.473-.329.725-.903.725zm5.075-4.292c-1.491 0-2.524 1.154-2.524 2.605 0 1.569 1.076 2.605 2.524 2.605s2.551-1.066 2.551-2.605c-.043-1.584-1.117-2.605-2.551-2.605zm0 4.336c-.903 0-1.606-.77-1.606-1.746 0-1.021.703-1.79 1.606-1.79.903 0 1.648.724 1.648 1.79-.043.977-.659 1.746-1.648 1.746zm3.541.77h.874v-4.218h1.893v-.843h-2.767v5.061zm5.534-5.106c-1.492 0-2.524 1.154-2.524 2.605 0 1.569 1.075 2.605 2.524 2.605 1.447 0 2.551-1.066 2.551-2.605 0-1.584-1.076-2.605-2.551-2.605zm0 4.336c-.904 0-1.607-.77-1.607-1.746 0-1.021.703-1.79 1.607-1.79.903 0 1.648.724 1.648 1.79 0 .977-.617 1.746-1.648 1.746zm7.999 0c-.99 0-1.693-.725-1.693-1.746 0-1.11.703-1.79 1.563-1.79.502 0 .832.133 1.118.34l.374-.637c-.331-.296-.861-.518-1.492-.518-1.605 0-2.479 1.155-2.479 2.605 0 1.569 1.031 2.605 2.522 2.605.617 0 1.233-.207 1.562-.548l-.329-.68c-.315.251-.731.37-1.146.37zm5.447-2.205h-2.222V35h-.874v5.062h.874v-2.176h2.222v2.176h.86v-5.061h-.86v2.086zm3.67-2.087l-2.064 5.032h.86l.502-1.272h2.063l.502 1.272h.903l-2.063-5.031h-.703zm-.373 2.93l.703-1.79.702 1.79h-1.405z"/></g><defs><clipPath id="clip0"><path fill="#fff" d="M0 0h156v42H0z"/></clipPath></defs></svg>