<svg width="186" height="106" fill="none" xmlns="http://www.w3.org/2000/svg"><g clip-path="url(#clip0)"><path d="M86.253 23.764a13.897 13.897 0 00-5.836-3.394 13.817 13.817 0 00-6.733-.234 13.88 13.88 0 00-6.054 2.979 14.032 14.032 0 00-3.958 5.495 14.14 14.14 0 001.371 13.107 13.964 13.964 0 005.008 4.542 13.836 13.836 0 006.538 1.64h33.598L86.253 23.764zM98.854 0a13.839 13.839 0 00-7.687 2.328 14.003 14.003 0 00-5.133 6.219 14.134 14.134 0 00-.873 8.043 14.07 14.07 0 003.678 7.19l23.943 24.127V14.04c0-1.844-.36-3.67-1.06-5.373a14.053 14.053 0 00-3.019-4.555 13.928 13.928 0 00-4.519-3.043A13.832 13.832 0 0098.854 0zm52.057 19.82a13.814 13.814 0 00-9.664 3.943L117.313 47.9h33.598c3.694 0 7.237-1.48 9.849-4.112a14.097 14.097 0 004.079-9.928c0-3.723-1.467-7.294-4.079-9.927a13.873 13.873 0 00-9.849-4.113zm-12.25 3.961a14.055 14.055 0 003.366-5.882c.628-2.21.707-4.54.233-6.787a14.082 14.082 0 00-2.956-6.102 13.934 13.934 0 00-5.451-3.99 13.825 13.825 0 00-13.001 1.382 13.998 13.998 0 00-4.507 5.048 14.14 14.14 0 00-1.628 6.59v33.867l23.944-24.126z" fill="#E53F25"/><path d="M117.097 72.009c-1.238.34-2.515.516-3.799.525a6.177 6.177 0 01-2.635-.47c-.658-.314-.986-.784-.986-1.41 0-.555.323-.958.968-1.21a18.67 18.67 0 013.119-.778c1.315-.204 2.614-.5 3.888-.885a6.24 6.24 0 002.636-1.644c.74-.77 1.11-1.83 1.111-3.18a5.344 5.344 0 00-.627-2.69 5.285 5.285 0 00-1.882-2.007c-1.673-1.107-3.812-1.661-6.417-1.662a16.328 16.328 0 00-3.943.488 15.95 15.95 0 00-3.621 1.355l1.613 3.794a12.755 12.755 0 012.761-.94 13.89 13.89 0 013.19-.397 5.836 5.836 0 012.581.47 1.51 1.51 0 01.931 1.409c0 .602-.328 1.03-.985 1.283a19.316 19.316 0 01-3.172.777 31.51 31.51 0 00-3.836.92 6.2 6.2 0 00-2.599 1.626c-.728.76-1.092 1.802-1.092 3.126 0 2 .86 3.542 2.58 4.626 1.721 1.084 3.908 1.625 6.56 1.625a17.52 17.52 0 004.462-.578c1.4-.356 2.744-.903 3.997-1.626l-1.613-3.758c-1.01.534-2.081.94-3.19 1.21zM186 57.366h-4.757v1.304a9.489 9.489 0 00-9.518-.086 9.578 9.578 0 00-3.524 3.47 9.686 9.686 0 00-.14 9.594 9.59 9.59 0 003.421 3.572 9.488 9.488 0 009.517.196 7.257 7.257 0 01-.535 1.457c-1.363 2.742-4.347 4.514-7.6 4.514-3.259 0-6.245-1.775-7.605-4.524a7.21 7.21 0 01-.754-3.219l-.024-16.278h-4.757v1.315a9.495 9.495 0 00-9.634-.063 9.592 9.592 0 00-3.527 3.56 9.696 9.696 0 00.075 9.712 9.59 9.59 0 003.582 3.502 9.492 9.492 0 009.632-.215 12 12 0 001.151 3.826c2.158 4.361 6.813 7.18 11.862 7.18 5.037 0 9.69-2.812 11.852-7.162a11.977 11.977 0 001.264-5.37H186V57.367zm-31.12 14.439a4.77 4.77 0 01-2.666-.815 4.834 4.834 0 01-1.768-2.17 4.875 4.875 0 01-.273-2.795c.185-.938.642-1.8 1.313-2.476a4.763 4.763 0 015.229-1.05 4.802 4.802 0 012.153 1.782 4.858 4.858 0 01-.597 6.105 4.782 4.782 0 01-3.391 1.419zm21.536 0a4.772 4.772 0 01-2.666-.815 4.829 4.829 0 01-1.767-2.171 4.875 4.875 0 01-.273-2.794c.185-.939.642-1.8 1.313-2.477a4.786 4.786 0 012.457-1.324 4.762 4.762 0 012.772.276 4.811 4.811 0 012.154 1.78 4.865 4.865 0 01-.598 6.107 4.785 4.785 0 01-3.392 1.418zM58.329 60.139a10.356 10.356 0 00-3.72-2.553 59.736 59.736 0 01-5.752-2.622c-1.056-.598-1.584-1.16-1.585-1.687 0-.67.558-1.005 1.674-1.005H58.6V47.82H46.952c-1.638 0-2.914.372-3.828 1.114a3.7 3.7 0 00-1.048 1.36 3.73 3.73 0 00-.324 1.692c0 2.369 1.936 4.463 5.806 6.282l-.088.048a9.43 9.43 0 00-.825.454c-.111.065-.215.13-.318.195-.018.012-.037.021-.054.033-.422.27-.812.587-1.162.946a9.645 9.645 0 00-2.797 4.881 9.699 9.699 0 00.394 5.623 9.615 9.615 0 003.45 4.437 9.498 9.498 0 005.322 1.729 9.494 9.494 0 005.37-1.572 9.609 9.609 0 003.577-4.333 9.698 9.698 0 00.557-5.609 9.65 9.65 0 00-2.655-4.96zm-6.715 11.679a4.77 4.77 0 01-2.666-.815 4.83 4.83 0 01-1.767-2.17 4.873 4.873 0 011.04-5.272 4.764 4.764 0 015.229-1.049 4.807 4.807 0 012.153 1.781 4.864 4.864 0 01-.598 6.106 4.784 4.784 0 01-3.391 1.419zm-20.84-14.421a9.5 9.5 0 00-5.31 1.623 9.616 9.616 0 00-3.519 4.322 9.703 9.703 0 00-.544 5.565 9.656 9.656 0 002.615 4.932 9.531 9.531 0 004.893 2.636 9.484 9.484 0 005.52-.548 9.572 9.572 0 004.288-3.548 9.683 9.683 0 00-1.192-12.158 9.528 9.528 0 00-6.752-2.824zm0 14.468a4.77 4.77 0 01-2.667-.815 4.827 4.827 0 01-1.767-2.17 4.872 4.872 0 01-.273-2.795c.185-.938.642-1.8 1.313-2.477a4.787 4.787 0 012.457-1.323 4.763 4.763 0 012.772.275 4.806 4.806 0 012.153 1.781 4.864 4.864 0 01-.598 6.105 4.783 4.783 0 01-3.39 1.419zm62.76-14.516a9.51 9.51 0 00-5.31 1.623 9.617 9.617 0 00-3.519 4.323 9.704 9.704 0 00-.543 5.565 9.657 9.657 0 002.615 4.932 9.532 9.532 0 004.892 2.636 9.485 9.485 0 005.521-.548 9.567 9.567 0 004.288-3.548 9.684 9.684 0 00-1.192-12.158 9.526 9.526 0 00-6.752-2.825zm0 14.468a4.77 4.77 0 01-2.666-.814 4.83 4.83 0 01-1.768-2.171 4.873 4.873 0 01-.273-2.795 4.85 4.85 0 011.313-2.476 4.787 4.787 0 012.457-1.324 4.763 4.763 0 012.772.275 4.807 4.807 0 012.154 1.781 4.864 4.864 0 01-.598 6.106 4.784 4.784 0 01-3.391 1.419zm-20.895-14.48a9.427 9.427 0 00-4.79 1.31v-1.281h-4.756v9.431c-.001.057-.009.113-.009.17 0 .058.008.115.01.172v14.202h4.755V75.29a9.494 9.494 0 008.435.574 9.552 9.552 0 003.532-2.543 9.652 9.652 0 002.05-3.857 9.687 9.687 0 00.146-4.373 9.664 9.664 0 00-1.79-3.986 9.567 9.567 0 00-3.355-2.776 9.488 9.488 0 00-4.228-.992zm0 14.468a4.78 4.78 0 01-3.36-1.392 4.856 4.856 0 01-1.43-3.367v-.157a4.859 4.859 0 01.848-2.662 4.801 4.801 0 012.17-1.743 4.759 4.759 0 012.763-.24 4.783 4.783 0 012.433 1.342 4.868 4.868 0 011 5.257 4.824 4.824 0 01-1.768 2.155 4.766 4.766 0 01-2.656.807zm61.339-14.469a9.424 9.424 0 00-4.807 1.322v-1.292h-4.756v23.975h4.756V75.28a9.478 9.478 0 008.438.59 9.554 9.554 0 003.538-2.54 9.658 9.658 0 002.056-3.856 9.711 9.711 0 00.149-4.375 9.662 9.662 0 00-1.788-3.99 9.574 9.574 0 00-3.357-2.778 9.482 9.482 0 00-4.229-.993zm0 14.47a4.771 4.771 0 01-2.666-.816 4.827 4.827 0 01-1.767-2.17 4.867 4.867 0 011.039-5.271 4.787 4.787 0 012.457-1.324 4.762 4.762 0 012.772.275 4.81 4.81 0 012.154 1.78 4.864 4.864 0 01-.598 6.106 4.782 4.782 0 01-3.391 1.42zM19.139 57.365h-4.756v1.305a9.498 9.498 0 00-9.592-.065 9.593 9.593 0 00-3.524 3.528 9.69 9.69 0 000 9.67 9.593 9.593 0 003.524 3.528 9.496 9.496 0 009.592-.066v1.35c0 .61-.141 1.212-.414 1.757a4.77 4.77 0 01-1.784 1.861 4.72 4.72 0 01-2.486.653 4.715 4.715 0 01-2.488-.653 4.765 4.765 0 01-1.784-1.866 3.924 3.924 0 01-.411-1.752H.258a8.707 8.707 0 00.912 3.89c1.555 3.145 4.903 5.176 8.53 5.176 3.617 0 6.963-2.026 8.522-5.162a8.695 8.695 0 00.918-3.904v-19.25zm-9.584 14.44a4.77 4.77 0 01-2.665-.816 4.828 4.828 0 01-1.767-2.17 4.873 4.873 0 01-.273-2.795c.186-.938.643-1.8 1.314-2.476a4.786 4.786 0 012.456-1.323 4.763 4.763 0 012.772.275 4.807 4.807 0 012.153 1.782 4.864 4.864 0 01-.598 6.105 4.784 4.784 0 01-3.392 1.418zm12.966 30.894a1.928 1.928 0 01-.943-1.719 1.618 1.618 0 01.409-1.168c.266-.28.597-.49.964-.609.483-.15.974-.27 1.47-.363a7.704 7.704 0 001.353-.357.603.603 0 00.423-.594.728.728 0 00-.41-.664 2.307 2.307 0 00-1.13-.231 4.895 4.895 0 00-1.24.167 4.709 4.709 0 00-1.076.406l-.542-1.258c.436-.231.897-.41 1.374-.531a5.83 5.83 0 011.485-.197 4.143 4.143 0 012.365.616 1.997 1.997 0 01.909 1.748 1.651 1.651 0 01-.417 1.189c-.272.285-.61.497-.985.615a13.83 13.83 0 01-1.47.363 6.31 6.31 0 00-1.325.336.607.607 0 00-.423.587.686.686 0 00.43.637c.367.161.766.235 1.165.217a5.521 5.521 0 001.485-.21c.43-.113.844-.277 1.234-.49l.541 1.231a6.453 6.453 0 01-3.233.881 4.415 4.415 0 01-2.413-.602zm8.365.099a3.565 3.565 0 01-1.409-1.364 3.877 3.877 0 01-.505-1.98 3.833 3.833 0 01.505-1.97 3.57 3.57 0 011.409-1.358 4.475 4.475 0 014.065 0 3.569 3.569 0 011.408 1.358c.342.598.517 1.28.506 1.97a3.886 3.886 0 01-.506 1.98 3.564 3.564 0 01-1.408 1.364 4.478 4.478 0 01-4.065 0zm3.606-1.651a2.598 2.598 0 000-3.384 2.117 2.117 0 00-1.581-.644 2.081 2.081 0 00-1.574.644 2.624 2.624 0 000 3.384 2.082 2.082 0 001.574.643 2.1 2.1 0 001.581-.643zm9.51-5.034a3.346 3.346 0 011.346 1.343c.329.618.494 1.311.479 2.013a4.223 4.223 0 01-.458 2 3.29 3.29 0 01-1.283 1.342 3.754 3.754 0 01-1.907.475 3.033 3.033 0 01-2.415-.993v3.608h-1.748v-6.418a3.973 3.973 0 01.5-2.006 3.47 3.47 0 011.394-1.358 4.297 4.297 0 012.074-.481 4.135 4.135 0 012.019.475zm-.506 5.041a2.361 2.361 0 00.61-1.685 2.389 2.389 0 00-.61-1.692 2.252 2.252 0 00-3.163-.014 2.69 2.69 0 00.007 3.391 2.044 2.044 0 001.574.651 2.08 2.08 0 001.582-.651zm5.092 1.644a3.565 3.565 0 01-1.409-1.364 3.877 3.877 0 01-.505-1.98 3.833 3.833 0 01.505-1.97 3.568 3.568 0 011.409-1.358 4.474 4.474 0 014.065 0 3.572 3.572 0 011.408 1.358c.342.598.517 1.28.506 1.97a3.888 3.888 0 01-.506 1.98 3.573 3.573 0 01-1.408 1.364 4.478 4.478 0 01-4.066 0zm3.606-1.651a2.598 2.598 0 000-3.384 2.114 2.114 0 00-1.581-.644 2.081 2.081 0 00-1.574.644 2.624 2.624 0 000 3.384 2.082 2.082 0 001.574.643 2.1 2.1 0 001.581-.643zm11.126-5.425v6.335c0 2.628-1.331 3.943-3.995 3.943a7.342 7.342 0 01-2.026-.273 4.278 4.278 0 01-1.58-.79l.776-1.315c.365.293.781.514 1.227.651.486.161.994.244 1.506.245.814 0 1.41-.187 1.79-.56.379-.373.569-.941.568-1.706v-.392a2.85 2.85 0 01-1.081.742 3.793 3.793 0 01-1.402.251 3.984 3.984 0 01-1.907-.454 3.387 3.387 0 01-1.346-1.28 3.61 3.61 0 01-.492-1.887 3.575 3.575 0 01.492-1.881c.323-.54.789-.979 1.346-1.266a4.048 4.048 0 011.907-.447c.5-.007.997.084 1.464.265.43.171.81.45 1.102.81v-.991h1.651zm-2.337 5.055a2.014 2.014 0 00.631-1.546 1.992 1.992 0 00-.631-1.524 2.539 2.539 0 00-3.246 0 1.981 1.981 0 00-.632 1.524 2.03 2.03 0 00.632 1.546c.455.383 1.03.594 1.623.594s1.168-.211 1.623-.594zm7.996-5.055h1.734v3.034h3.733v-3.034h1.734v7.467h-1.734v-2.951h-3.733v2.951H68.98v-7.467zm16.495 0v7.467h-1.65v-.965a2.679 2.679 0 01-1.062.797 3.564 3.564 0 01-1.394.265 3.902 3.902 0 01-1.934-.475 3.369 3.369 0 01-1.333-1.342 4.113 4.113 0 01-.478-2.014c-.015-.7.15-1.391.478-2.007a3.383 3.383 0 011.333-1.335 3.902 3.902 0 011.934-.475 3.42 3.42 0 011.326.251c.398.166.756.42 1.047.74v-.907h1.733zm-2.33 5.425a2.598 2.598 0 000-3.384 2.115 2.115 0 00-1.582-.644 2.081 2.081 0 00-1.574.644 2.623 2.623 0 000 3.384 2.082 2.082 0 001.574.643 2.1 2.1 0 001.582-.643zm5.688 1.651a3.59 3.59 0 01-1.43-1.364 3.843 3.843 0 01-.513-1.98 3.8 3.8 0 01.513-1.97 3.607 3.607 0 011.423-1.358 4.309 4.309 0 012.074-.488 3.979 3.979 0 011.92.447c.539.286.973.736 1.242 1.286l-1.332.784a2.13 2.13 0 00-.797-.777 2.313 2.313 0 00-2.656.377 2.588 2.588 0 00-.008 3.399 2.34 2.34 0 001.273.613c.476.067.962-.015 1.39-.235a2.13 2.13 0 00.798-.776l1.332.782a3.005 3.005 0 01-1.255 1.294 3.889 3.889 0 01-1.907.454 4.324 4.324 0 01-2.067-.488zm18.075-6.343c.546.546.819 1.364.818 2.454v4.28h-1.733v-4.055a2.209 2.209 0 00-.43-1.476 1.543 1.543 0 00-1.235-.496 1.798 1.798 0 00-1.401.58 2.383 2.383 0 00-.528 1.657v3.79h-1.734v-4.055a2.203 2.203 0 00-.429-1.476A1.56 1.56 0 0099 97.16a1.798 1.798 0 00-1.408.574 2.394 2.394 0 00-.52 1.664v3.79h-1.735v-7.467h1.65v.95a2.718 2.718 0 011.041-.769c.44-.182.912-.272 1.388-.266.51-.01 1.015.098 1.478.315.422.203.776.526 1.019.93a3.096 3.096 0 011.179-.917 3.815 3.815 0 011.596-.328 2.989 2.989 0 012.219.818zm3.982 6.343a3.559 3.559 0 01-1.408-1.364 3.864 3.864 0 01-.506-1.98 3.832 3.832 0 01.506-1.97 3.565 3.565 0 011.408-1.358 4.476 4.476 0 014.066 0 3.57 3.57 0 011.407 1.358c.343.598.517 1.28.506 1.97a3.884 3.884 0 01-.506 1.98 3.563 3.563 0 01-1.407 1.364 4.482 4.482 0 01-4.066 0zm3.606-1.651c.404-.47.625-1.07.625-1.692 0-.621-.221-1.222-.625-1.692a2.11 2.11 0 00-1.58-.644 2.088 2.088 0 00-1.575.644 2.622 2.622 0 000 3.384 2.09 2.09 0 001.575.643 2.097 2.097 0 001.58-.643zm9.837-5.425v7.467h-1.554v-2.251h-1.956l-1.512 2.251h-1.859l1.748-2.489a2.466 2.466 0 01-1.228-.86 2.642 2.642 0 01.478-3.42c.602-.465 1.429-.698 2.483-.698h3.4zm-5.022 2.74c0 .84.541 1.26 1.623 1.26h1.845V97.19h-1.789c-1.12 0-1.68.424-1.68 1.272h.001zm19.297-2.713v7.468h-1.651v-.951a2.68 2.68 0 01-1.041.768c-.44.183-.911.273-1.386.267a3.282 3.282 0 01-1.471-.322 2.445 2.445 0 01-1.027-.937 3.02 3.02 0 01-1.172.923 3.788 3.788 0 01-1.603.336 2.983 2.983 0 01-2.22-.825c-.545-.55-.818-1.366-.817-2.448v-4.279h1.734v4.041a2.196 2.196 0 00.43 1.476c.156.17.348.303.562.388.213.086.443.123.672.108a1.833 1.833 0 001.409-.566 2.375 2.375 0 00.52-1.657v-3.79h1.734v4.041a2.2 2.2 0 00.429 1.476 1.542 1.542 0 001.236.496 1.805 1.805 0 001.407-.566 2.37 2.37 0 00.521-1.657v-3.79h1.734zm1.207 5.957v3.021h-1.624v-1.538h-1.234v-1.483h2.858zm6.784-.713l.915 1.077a3.042 3.042 0 01-1.249.909 4.977 4.977 0 01-3.87-.181 3.513 3.513 0 01-1.436-1.364 3.864 3.864 0 01-.506-1.98 3.919 3.919 0 01.492-1.964 3.526 3.526 0 011.36-1.364 3.926 3.926 0 011.962-.488 3.97 3.97 0 011.894.453 3.414 3.414 0 011.353 1.302c.342.6.515 1.285.499 1.978l-5.674 1.118c.163.415.462.76.846.98.43.234.913.35 1.402.336a2.727 2.727 0 002.011-.812h.001zm-3.878-3.328a2.373 2.373 0 00-.59 1.692v.014l4.19-.81a1.984 1.984 0 00-.729-1.106 2.117 2.117 0 00-1.325-.42 2.013 2.013 0 00-1.546.63zm7.053 5.034a1.93 1.93 0 01-.943-1.719 1.615 1.615 0 01.409-1.168c.266-.28.598-.49.964-.609.483-.15.974-.27 1.471-.363.46-.078.913-.197 1.352-.357a.608.608 0 00.424-.594.725.725 0 00-.41-.664 2.305 2.305 0 00-1.13-.231 4.914 4.914 0 00-1.242.167 4.719 4.719 0 00-1.075.406l-.542-1.258a6.19 6.19 0 011.375-.531 5.826 5.826 0 011.484-.197 4.145 4.145 0 012.365.616 1.991 1.991 0 01.909 1.748 1.65 1.65 0 01-.417 1.19c-.272.284-.61.495-.985.614a13.77 13.77 0 01-1.47.363 6.297 6.297 0 00-1.325.336.603.603 0 00-.307.223.618.618 0 00-.116.364.685.685 0 00.43.637c.367.161.766.235 1.165.217a5.525 5.525 0 001.485-.21c.43-.113.844-.277 1.235-.49l.541 1.231a6.456 6.456 0 01-3.234.881 4.417 4.417 0 01-2.413-.602zm8.366.099a3.565 3.565 0 01-1.408-1.364 3.884 3.884 0 01-.506-1.98 3.832 3.832 0 01.506-1.97 3.571 3.571 0 011.408-1.358 4.476 4.476 0 014.065 0 3.566 3.566 0 011.408 1.358c.343.598.517 1.28.506 1.97a3.884 3.884 0 01-.506 1.98 3.559 3.559 0 01-1.408 1.364 4.475 4.475 0 01-4.065 0zm3.606-1.651a2.594 2.594 0 000-3.384 2.109 2.109 0 00-1.581-.644 2.078 2.078 0 00-1.574.644 2.62 2.62 0 00-.617 1.692c0 .62.218 1.22.617 1.692a2.09 2.09 0 001.574.643 2.1 2.1 0 001.581-.643z" fill="#111"/></g><defs><clipPath id="clip0"><path fill="#fff" d="M0 0h186v106H0z"/></clipPath></defs></svg>