<svg width="27" height="27" fill="none" xmlns="http://www.w3.org/2000/svg"><path d="M14.404.454h.233c.051 0 .077.026.129.026.439.052.878.103 1.292.18 2.712.517 5.011 1.783 6.923 3.747 1.963 2.015 3.151 4.391 3.565 7.181.052.31.077.62.129.93v.233h-2.118c-.31 0-.517.232-.543.542v.569c0 .31.233.542.543.542h2.118v.233c0 .051-.026.103-.026.129a12.686 12.686 0 01-.439 2.402c-.723 2.48-2.04 4.573-3.953 6.252-1.911 1.705-4.159 2.738-6.69 3.126-.31.051-.62.077-.93.129h-.233v-2.067a.542.542 0 00-.568-.568h-.569a.53.53 0 00-.542.542v2.119h-.232c-.052 0-.078-.026-.13-.026-.413-.052-.8-.078-1.214-.155-3.358-.646-6.07-2.35-8.137-5.063A12.65 12.65 0 01.557 15.54c-.051-.284-.077-.594-.129-.879v-.232h2.067c.336 0 .568-.233.568-.543v-.568a.53.53 0 00-.542-.542H.402v-.233c0-.052.026-.103.026-.13.078-.98.284-1.962.594-2.892.853-2.558 2.351-4.65 4.47-6.304C7.274 1.85 9.289.971 11.51.635c.31-.052.62-.078.93-.13h.232v2.067c0 .336.233.569.543.569h.568a.53.53 0 00.543-.543c.077-.749.077-1.446.077-2.144zm3.358 12.22s0-.027 0 0h-2.531c-.181 0-.336-.027-.44-.182a.608.608 0 00-.232-.206c-.077-.052-.103-.13-.103-.233v-5.27a.871.871 0 00-.75-.878c-.464-.052-.878.207-1.007.646-.026.129-.026.258-.026.387v5.038c0 .155-.051.258-.155.336-.516.439-.697 1.007-.542 1.653.155.646.594 1.06 1.24 1.214.671.155 1.24-.077 1.653-.594.078-.078.13-.13.233-.13h5.218c.13 0 .258-.025.387-.05a.908.908 0 00.569-1.008.889.889 0 00-.878-.724c-.879-.026-1.757 0-2.636 0z" fill="#EF7922"/></svg>