<svg width="25" height="24" fill="none" xmlns="http://www.w3.org/2000/svg"><path fill-rule="evenodd" clip-rule="evenodd" d="M12.003 2a1 1 0 011 1v2.42l6.496 3.712a1 1 0 01.504.868v7.382l2.447 1.224a1 1 0 11-.895 1.788l-2.52-1.26-6.536 3.734a1 1 0 01-.992 0L4.97 19.134l-2.521 1.26a1 1 0 11-.895-1.788l2.448-1.224V10a1 1 0 01.504-.868l6.496-3.712V3a1 1 0 011-1zm0 5.152L7.018 10l4.985 2.848L16.987 10l-4.984-2.848zm6 4.571l-5 2.857v5.697l5-2.857v-5.697zm-7 8.554V14.58l-5-2.857v5.697l5 2.857z" fill="#EF7922"/></svg>