<svg width="26" height="16" fill="none" xmlns="http://www.w3.org/2000/svg"><path d="M.867 1.565c.411.347.801.693 1.191 1.018C4.702 4.837 7.345 7.09 9.967 9.322c.541.455 1.083.931 1.646 1.408.802.672 1.864.672 2.644 0 2.86-2.448 5.72-4.875 8.601-7.323.672-.585 1.365-1.149 2.037-1.734.022-.021.065-.043.108-.086.152.238.195.498.195.758v10.942c0 .216 0 .433-.021.628a1.7 1.7 0 01-1.712 1.538H2.6c-.26 0-.542-.021-.802-.108-.693-.238-1.126-.867-1.126-1.603V2.367c0-.26.065-.52.195-.802z" fill="#EF7922"/><path d="M1.712.785a1.61 1.61 0 01.693-.152H23.27c.195 0 .39 0 .563.022.109.022.217.065.325.087.022.021.022.043.044.065l-.13.065c-2.535 2.166-5.049 4.311-7.584 6.478-.975.823-1.95 1.647-2.925 2.492-.368.303-.888.325-1.235 0L4.81 3.428 1.82.893C1.798.85 1.755.828 1.712.785z" fill="#EF7922"/></svg>