<svg width="18" height="28" fill="none" xmlns="http://www.w3.org/2000/svg"><path d="M9.882.737c.268.038.536.076.843.115 1.61.23 2.99.881 4.217 1.955 1.533 1.303 2.491 2.951 2.836 4.906.345 1.879.077 3.719-.805 5.444a2655.626 2655.626 0 01-7.513 14.72c0 .038-.038.076-.077.115-.038-.039-.038-.077-.076-.154-2.53-4.945-5.06-9.89-7.552-14.835-.69-1.341-.958-2.798-.843-4.331.153-2.262 1.073-4.179 2.76-5.712C4.86 1.848 6.24 1.197 7.85.89c.307-.077.652-.077.958-.115.039 0 .077 0 .115-.038h.959zm4.638 8.51a5.096 5.096 0 00-5.098-5.099c-2.837 0-5.137 2.262-5.137 5.099 0 2.798 2.3 5.098 5.098 5.098 2.837.038 5.137-2.262 5.137-5.098z" fill="#EF7922"/></svg>