<svg width="25" height="24" fill="none" xmlns="http://www.w3.org/2000/svg"><path d="M12.877 13.002c.092 0 .18 0 .266.002l.483.009.422.015.192.01.348.028c.546.054.93.15 1.328.315a5 5 0 012.706 2.706l.038.093.068.185.059.185.026.095.045.197.038.213.016.113.028.247.021.276.016.311.016.547.009.907V21a1 1 0 01-1 1h-12a1 1 0 01-1-1l.001-1.59.004-.55.008-.483.016-.423.01-.191.028-.349c.054-.546.15-.93.314-1.327A5 5 0 018.09 13.38c.398-.165.782-.26 1.328-.315l.349-.027c.123-.008.255-.014.395-.02l.452-.011.515-.006h1.75zm-7.8.98a1 1 0 01-.335 1.286l-.101.059a3 3 0 00-1.311 1.311l-.031.063-.057.132-.049.142a2.6 2.6 0 00-.042.159l-.035.18-.016.099-.027.221-.022.256-.017.296-.012.34-.015.839-.003.508L3.003 21a1 1 0 01-1.994.117L1.003 21v-1.19l.008-.828.01-.475.014-.42.01-.192.024-.35c.055-.659.154-1.084.331-1.5l.095-.21.053-.105a5 5 0 012.185-2.185 1 1 0 011.345.437zm15.196-.437a5 5 0 012.185 2.185l.094.195c.015.032.03.064.043.096l.078.194.035.1.062.203c.01.035.02.071.028.107l.049.226c.015.078.028.16.04.246l.033.271.026.302.029.521.017.617.008.731.003 1.461a1 1 0 01-1.994.117L21.003 21l-.001-1.127-.01-.955-.014-.568-.015-.317-.02-.276-.024-.238a4.688 4.688 0 00-.014-.106l-.033-.193a2.54 2.54 0 00-.06-.245l-.049-.142-.056-.132a3 3 0 00-1.158-1.272l-.184-.102a1 1 0 01.908-1.782zm-7.428 1.457h-1.682l-.66.008-.36.012-.307.017-.26.024c-.08.008-.154.018-.221.03l-.19.037-.164.045a1.86 1.86 0 00-.146.053 3 3 0 00-1.678 1.77l-.045.165-.037.189a4.22 4.22 0 00-.03.22l-.023.26a9.688 9.688 0 00-.01.148l-.014.333-.012.61L7.003 20h10l-.001-.507-.008-.831-.019-.624-.023-.358-.02-.197-.026-.17a2.84 2.84 0 00-.015-.077l-.033-.14-.039-.126-.045-.118a3 3 0 00-1.77-1.677l-.164-.046-.19-.037a4.284 4.284 0 00-.22-.03l-.26-.023-.307-.017-.36-.011-.658-.01zM12.003 2a4.5 4.5 0 110 9 4.5 4.5 0 010-9zm-5.18 1.055a1 1 0 01-.248 1.393A2.495 2.495 0 005.503 6.5c0 .888.465 1.693 1.212 2.143a1 1 0 11-1.032 1.713A4.497 4.497 0 013.503 6.5c0-1.49.73-2.857 1.928-3.693a1 1 0 011.392.248zm11.752-.248A4.495 4.495 0 0120.503 6.5c0 1.49-.73 2.857-1.928 3.693a1 1 0 11-1.144-1.64A2.496 2.496 0 0018.503 6.5c0-.828-.405-1.587-1.073-2.052a1 1 0 011.145-1.64zM12.003 4a2.5 2.5 0 100 5 2.5 2.5 0 000-5z" fill="#EF7922"/></svg>