<svg width="25" height="24" fill="none" xmlns="http://www.w3.org/2000/svg"><path d="M10.003 17.5a1 1 0 011-1h2a1 1 0 110 2h-2a1 1 0 01-1-1z" fill="#EF7922"/><path fill-rule="evenodd" clip-rule="evenodd" d="M7.003 2.5a1 1 0 011-1h8a1 1 0 011 1v3h4a2 2 0 012 2v8a2 2 0 01-2 2h-4v4a1 1 0 01-1 1h-8a1 1 0 01-1-1v-4h-4a2 2 0 01-2-2v-8a2 2 0 012-2h4v-3zm0 12h-.5a1 1 0 110-2h11a1 1 0 110 2h-.5v1h4v-8h-2v2a1 1 0 01-1 1h-12a1 1 0 01-1-1v-2h-2v8h4v-1zm2 0v6h6v-6h-6zm6-8a1 1 0 001 1h1v1h-10v-1h1a1 1 0 001-1v-3h6v3z" fill="#EF7922"/></svg>