<svg width="25" height="24" fill="none" xmlns="http://www.w3.org/2000/svg"><path fill-rule="evenodd" clip-rule="evenodd" d="M12.003 3a8.977 8.977 0 00-6.709 3h1.709a1 1 0 010 2H3.34a1 1 0 01-1-1V3.338a1 1 0 112 0v.77A10.964 10.964 0 0112.003 1a1 1 0 110 2zm4 .338a1 1 0 011-1h3.662a1 1 0 110 2h-.77A10.964 10.964 0 0123.003 12a1 1 0 11-2 0 8.977 8.977 0 00-3-6.708V7a1 1 0 11-2 0V3.338zm-4 4.662a1 1 0 011 1v2h2a1 1 0 110 2h-2v2a1 1 0 11-2 0v-2h-2a1 1 0 110-2h2V9a1 1 0 011-1zm-10 3a1 1 0 011 1 8.977 8.977 0 003 6.709V17a1 1 0 112 0v3.662a1 1 0 01-1 1H3.34a1 1 0 110-2h.77A10.964 10.964 0 011.002 12a1 1 0 011-1zm14 6a1 1 0 011-1h3.662a1 1 0 011 1v3.662a1 1 0 11-2 0v-.77A10.965 10.965 0 0112.003 23a1 1 0 110-2 8.977 8.977 0 006.708-3h-1.708a1 1 0 01-1-1z" fill="#EF7922"/></svg>