<svg width="24" height="27" fill="none" xmlns="http://www.w3.org/2000/svg"><path d="M14.875 25.947a9.004 9.004 0 01-.877-.117c-1.05-.204-2.015-.613-2.95-1.168-2.862-1.665-5.14-3.943-6.98-6.66-1.314-1.927-2.395-4-3.125-6.22-.438-1.315-.76-2.687-.876-4.09C-.021 6.73-.05 5.795.154 4.83c.35-1.577 1.227-2.833 2.512-3.767A5.833 5.833 0 014.565.099c.438-.117.876-.146 1.314 0 .555.175.935.555 1.197 1.08.38.76.643 1.578.877 2.395.175.643.321 1.315.467 1.987.058.262.03.554 0 .847-.058.467-.35.788-.73 1.051-.438.292-.906.497-1.402.701-.409.175-.789.321-1.198.496-.32.147-.438.41-.35.76.876 2.6 2.161 4.965 3.797 7.155a24.983 24.983 0 002.862 3.213c.321.322.672.292.935-.058.467-.584.934-1.14 1.548-1.548.38-.263.818-.497 1.314-.497.321-.029.643.059.905.234 1.344.818 2.6 1.782 3.622 3.008.204.234.35.497.497.76.292.584.262 1.168-.03 1.723-.32.613-.817 1.08-1.372 1.46a6.077 6.077 0 01-3.126 1.14c-.029 0-.087.029-.116.029-.176-.088-.438-.088-.701-.088zm9.054-13.99c0 .847-.088 1.635-.234 2.424a1.156 1.156 0 01-1.139.935c-.555 0-1.051-.38-1.139-.935-.03-.175-.03-.38.03-.584.496-2.745-.088-5.257-1.753-7.477-1.402-1.898-3.3-3.067-5.579-3.563-.555-.117-.963-.584-.963-1.14 0-.554.35-1.022.905-1.168.292-.087.584 0 .876.088 4.381 1.051 7.74 4.498 8.762 8.908.146.847.234 1.694.234 2.512z" fill="#EF7922"/><path d="M20.044 12.366c0 .584-.058 1.139-.175 1.694-.117.584-.642.993-1.227.934-.613-.058-1.08-.496-1.11-1.11 0-.146.03-.32.059-.467.263-1.606-.03-3.096-.935-4.44-.905-1.343-2.161-2.22-3.767-2.57-.555-.116-.906-.496-.993-1.022A1.14 1.14 0 0113.268 4.1c2.454.526 4.323 1.87 5.608 4.001a8.152 8.152 0 011.168 4.265z" fill="#EF7922"/><path d="M16.13 12.716c-.058.35-.058.672-.145 1.022-.117.614-.76 1.023-1.344.906-.643-.146-1.051-.73-.934-1.373a2.741 2.741 0 00-1.549-3.037c-.204-.088-.408-.146-.613-.205a1.183 1.183 0 01-.876-1.139c0-.555.38-.993.905-1.139.263-.058.497 0 .73.058 2.25.585 3.797 2.629 3.827 4.907z" fill="#EF7922"/></svg>